<svg version="1.2" xmlns="http://www.w3.org/2000/svg" viewBox="0 0 360 100" width="501" height="139"><style>.a{fill:#9cfdff}.b{fill:#97f58c}</style><path class="a" d="m74.3 89l-5.3-15.4h-34.1l-5.4 15.4h-21.9l31.3-84.6h26l31.3 84.6zm-22.4-64.7l-11.6 33.6h23.2zm55.5 64.7v-84.5h21.8v84.5zm152.6-22.1v17.5q-6 3.1-12.5 4.7-6.5 1.6-13.6 1.6-21.1 0-33.5-11.8-12.3-11.8-12.3-32.1 0-20.2 12.3-32 12.4-11.8 33.5-11.8 7.1 0 13.6 1.5 6.5 1.6 12.5 4.7v17.5q-6.1-4.1-12-6-5.8-1.9-12.4-1.9-11.6 0-18.3 7.4-6.7 7.5-6.7 20.6 0 13.1 6.7 20.6 6.7 7.5 18.3 7.5 6.6 0 12.4-1.9 5.9-2 12-6.1zm39.3 22.1l-31.3-84.5h21.9l22.4 62.4 22.4-62.4h21.9l-31.3 84.5z"/><path class="b" d="m139.9 99.8l29.8-95.4h12.6l-29.8 95.4z"/></svg>