<svg version="1.2" xmlns="http://www.w3.org/2000/svg" viewBox="0 0 873 834" width="873" height="834"><style>.a{fill:#fff}</style><path class="a" d="m872.8 841.5c-0.2-26.9-29.1-43.7-52.7-30.7-25.7 14.4-56.2 20.3-85.2 14.6-31.8-6.1-60.1-25.8-78.8-52.2-13.2-18.6-40.3-19.5-55.3-2.3-53.6 61.4-139.1 45.7-161.8-13.9-7.6-19.8-30.2-29.1-49.1-19.5-162 82.3-221-124.5-155.2-214.6 5.7-7.8-0.1-18.7-9.6-18-21.4 1.7-40.1-3.4-55.6-19.1-24.2-24.4-31.9-61.5-27.4-95.6 2.5-18.8 8.4-36.9 15.9-54.3 8-18.6-0.9-40.5-19.9-47.7-24.7-9.4-46.4-28-60.4-50.7-21.3-34.6-26.8-77.2-22.9-117.6 2.4-24.8 8.1-49.1 15-73.1 6.5-22.6-10.5-45.2-34.1-45.2-19.6 0-35.5 15.9-35.5 35.5v1341.9h876.3z"/></svg>