<svg version="1.2" xmlns="http://www.w3.org/2000/svg" viewBox="0 0 1379 873" width="1379" height="873"><style>.a{fill:#fff}</style><path class="a" d="m537.5 872.8c26.9-0.2 43.7-29.1 30.7-52.7-14.4-25.7-20.3-56.2-14.6-85.2 6.1-31.8 25.8-60.1 52.2-78.8 18.6-13.2 19.5-40.3 2.3-55.3-61.4-53.6-45.7-139.1 13.9-161.8 19.8-7.6 29.1-30.2 19.5-49.1-82.3-162 124.5-221 214.6-155.2 7.8 5.7 18.7-0.1 18-9.6-1.7-21.4 3.4-40.1 19.1-55.6 24.4-24.2 61.5-31.9 95.6-27.4 18.8 2.5 36.9 8.4 54.3 15.9 18.6 8 40.5-0.9 47.7-19.9 9.4-24.7 28-46.4 50.7-60.4 34.6-21.3 77.2-26.8 117.6-22.9 24.8 2.4 49.1 8.1 73.1 15 22.6 6.5 45.2-10.5 45.2-34.1 0-19.6-15.9-35.5-35.5-35.5h-1341.9v876.3z"/></svg>